<svg width="16" height="16" viewBox="0 0 16 16" fill="none" xmlns="http://www.w3.org/2000/svg">
<path fill-rule="evenodd" clip-rule="evenodd" d="M10.0001 0H9.00012V2H10.0001H12.5859L9.79302 4.79289L9.08591 5.5L10.5001 6.91421L11.2072 6.20711L14.0001 3.41421V6V7H16.0001V6V1C16.0001 0.447715 15.5524 0 15.0001 0H10.0001ZM7.00012 16H6.00012H1.00012C0.447837 16 0.00012207 15.5523 0.00012207 15V10V9L2.00012 9V10L2.00012 12.5858L4.79302 9.79289L5.50012 9.08579L6.91434 10.5L6.20723 11.2071L3.41434 14H6.00012H7.00012V16Z" fill="#234A71"/>
</svg>
