<svg width="20" height="20" viewBox="0 0 20 20" fill="none" xmlns="http://www.w3.org/2000/svg">
<path fill-rule="evenodd" clip-rule="evenodd" d="M5.40505 1.77559C5.90165 1.27899 6.57518 1 7.27748 1H12.7215C13.4238 1 14.0974 1.27899 14.594 1.77559C15.0906 2.27219 15.3696 2.94572 15.3696 3.64802V6.44406H16.3508C17.0531 6.44406 17.7267 6.72305 18.2233 7.21965C18.7199 7.71625 18.9988 8.38978 18.9988 9.09208V12.7215C18.9988 13.4238 18.7199 14.0973 18.2233 14.5939C17.7267 15.0905 17.0531 15.3695 16.3508 15.3695H15.3696V16.3508C15.3696 17.8133 14.184 18.9988 12.7215 18.9988H7.27748C5.81502 18.9988 4.62946 17.8133 4.62946 16.3508V15.3695H3.64802C2.94572 15.3695 2.27219 15.0905 1.77559 14.5939C1.27899 14.0973 1 13.4238 1 12.7215V9.09208C1 8.38978 1.27899 7.71625 1.77559 7.21965C2.27219 6.72305 2.94572 6.44406 3.64802 6.44406H4.62946V3.64802C4.62946 2.94572 4.90845 2.27219 5.40505 1.77559ZM4.62946 13.7028V12.7215C4.62946 11.259 5.81502 10.0734 7.27748 10.0734H12.7215C14.184 10.0734 15.3696 11.259 15.3696 12.7215V13.7028H16.3508C16.6111 13.7028 16.8607 13.5994 17.0448 13.4154C17.2288 13.2313 17.3322 12.9817 17.3322 12.7215V9.09208C17.3322 8.83181 17.2288 8.5822 17.0448 8.39816C16.8607 8.21412 16.6111 8.11073 16.3508 8.11073H14.5362H5.46279H3.64802C3.38775 8.11073 3.13814 8.21412 2.9541 8.39816C2.77006 8.5822 2.66667 8.83181 2.66667 9.09208V12.7215C2.66667 12.9817 2.77006 13.2313 2.9541 13.4154C3.13814 13.5994 3.38775 13.7028 3.64802 13.7028H4.62946ZM13.7029 14.524V12.7215C13.7029 12.1795 13.2635 11.7401 12.7215 11.7401H7.27748C6.73549 11.7401 6.29613 12.1795 6.29613 12.7215V16.3508C6.29613 16.8928 6.73549 17.3322 7.27748 17.3322H12.7215C13.2635 17.3322 13.7029 16.8928 13.7029 16.3508V14.5483C13.7028 14.5442 13.7028 14.5402 13.7028 14.5361C13.7028 14.5321 13.7028 14.528 13.7029 14.524ZM13.7029 3.64802V6.44406H6.29613V3.64802C6.29613 3.38775 6.39952 3.13814 6.58356 2.9541C6.7676 2.77006 7.01721 2.66667 7.27748 2.66667H12.7215C12.9818 2.66667 13.2314 2.77006 13.4155 2.9541C13.5995 3.13814 13.7029 3.38775 13.7029 3.64802Z" fill="#234A71"/>
</svg>
