<svg width="20" height="20" viewBox="0 0 20 20" fill="none" xmlns="http://www.w3.org/2000/svg">
<path fill-rule="evenodd" clip-rule="evenodd" d="M16.0404 1.29289C15.6499 0.902369 15.0168 0.902369 14.6262 1.29289L1.29289 14.6262C0.902369 15.0168 0.902369 15.6499 1.29289 16.0404L3.95956 18.7071C4.35008 19.0976 4.98325 19.0976 5.37377 18.7071L18.7071 5.37377C19.0976 4.98325 19.0976 4.35008 18.7071 3.95956L16.0404 1.29289ZM4.66667 16.5858L3.41421 15.3333L12.6667 6.08088L13.9191 7.33333L4.66667 16.5858ZM15.3333 5.91912L16.5858 4.66667L15.3333 3.41421L14.0809 4.66667L15.3333 5.91912ZM7.39491 1.52083C7.7631 1.52083 8.06157 1.81931 8.06157 2.1875C8.06157 2.35586 8.12845 2.51732 8.2475 2.63637C8.36655 2.75541 8.52801 2.82229 8.69637 2.82229C9.06456 2.82229 9.36303 3.12077 9.36303 3.48896C9.36303 3.85715 9.06456 4.15563 8.69637 4.15563C8.52801 4.15563 8.36655 4.22251 8.2475 4.34155C8.12845 4.4606 8.06157 4.62206 8.06157 4.79042C8.06157 5.15861 7.7631 5.45709 7.39491 5.45709C7.02672 5.45709 6.72824 5.15861 6.72824 4.79042C6.72824 4.62206 6.66136 4.4606 6.54231 4.34155C6.42326 4.22251 6.2618 4.15563 6.09344 4.15563C5.72526 4.15563 5.42678 3.85715 5.42678 3.48896C5.42678 3.12077 5.72526 2.82229 6.09344 2.82229C6.2618 2.82229 6.42326 2.75541 6.54231 2.63637C6.66136 2.51732 6.72824 2.35586 6.72824 2.1875C6.72824 1.81931 7.02672 1.52083 7.39491 1.52083ZM17.1757 11.3016C17.1757 10.9334 16.8772 10.635 16.509 10.635C16.1409 10.635 15.8424 10.9334 15.8424 11.3016C15.8424 11.47 15.7755 11.6314 15.6565 11.7505C15.5374 11.8695 15.3759 11.9364 15.2076 11.9364C14.8394 11.9364 14.5409 12.2349 14.5409 12.6031C14.5409 12.9713 14.8394 13.2697 15.2076 13.2697C15.3759 13.2697 15.5374 13.3366 15.6565 13.4557C15.7755 13.5747 15.8424 13.7362 15.8424 13.9045C15.8424 14.2727 16.1409 14.5712 16.509 14.5712C16.8772 14.5712 17.1757 14.2727 17.1757 13.9045C17.1757 13.7362 17.2426 13.5747 17.3616 13.4557C17.4807 13.3366 17.6421 13.2697 17.8105 13.2697C18.1787 13.2697 18.4772 12.9713 18.4772 12.6031C18.4772 12.2349 18.1787 11.9364 17.8105 11.9364C17.6421 11.9364 17.4807 11.8695 17.3616 11.7505C17.2426 11.6314 17.1757 11.47 17.1757 11.3016Z" fill="#234A71"/>
</svg>
