<svg width="20" height="20" viewBox="0 0 20 20" fill="none" xmlns="http://www.w3.org/2000/svg">
<path fill-rule="evenodd" clip-rule="evenodd" d="M9.1324 2.43166C9.48164 2.0993 9.7731 2 10 2C10.2269 2 10.5184 2.0993 10.8676 2.43166C11.222 2.76892 11.5866 3.30422 11.9146 4.04218C12.0618 4.37339 12.1977 4.73654 12.3199 5.12756C11.5732 5.04384 10.7959 5 10 5C9.20411 5 8.42683 5.04384 7.68012 5.12756C7.80231 4.73654 7.93818 4.37339 8.08538 4.04218C8.41337 3.30422 8.77801 2.76892 9.1324 2.43166ZM5.50385 5.50385C5.70285 4.67291 5.95666 3.90739 6.25776 3.2299C6.31802 3.09431 6.38064 2.96122 6.44561 2.83099C4.8816 3.60792 3.60792 4.8816 2.83099 6.44561C2.96122 6.38064 3.09431 6.31802 3.2299 6.25776C3.90739 5.95666 4.67291 5.70286 5.50385 5.50385ZM2.83099 13.5544C2.96122 13.6194 3.09431 13.682 3.2299 13.7422C3.90739 14.0433 4.67291 14.2971 5.50385 14.4961C5.70285 15.3271 5.95666 16.0926 6.25776 16.7701C6.31802 16.9057 6.38064 17.0388 6.44561 17.169C4.8816 16.3921 3.60792 15.1184 2.83099 13.5544ZM5.12756 12.3199C4.73654 12.1977 4.37339 12.0618 4.04218 11.9146C3.30422 11.5866 2.76892 11.222 2.43166 10.8676C2.0993 10.5184 2 10.2269 2 10C2 9.7731 2.0993 9.48164 2.43166 9.1324C2.76892 8.77801 3.30422 8.41337 4.04218 8.08538C4.37339 7.93818 4.73654 7.80231 5.12756 7.68012C5.04384 8.42683 5 9.20411 5 10C5 10.7959 5.04384 11.5732 5.12756 12.3199ZM7.20737 12.7926C7.07403 11.9258 7 10.9864 7 10C7 9.01361 7.07402 8.0742 7.20737 7.20737C8.0742 7.07403 9.01361 7 10 7C10.9864 7 11.9258 7.07403 12.7926 7.20737C12.926 8.0742 13 9.01361 13 10C13 10.9864 12.926 11.9258 12.7926 12.7926C11.9258 12.926 10.9864 13 10 13C9.01361 13 8.0742 12.926 7.20737 12.7926ZM7.68012 14.8724C7.80231 15.2635 7.93818 15.6266 8.08538 15.9578C8.41337 16.6958 8.77801 17.2311 9.1324 17.5683C9.48164 17.9007 9.7731 18 10 18C10.2269 18 10.5184 17.9007 10.8676 17.5683C11.222 17.2311 11.5866 16.6958 11.9146 15.9578C12.0618 15.6266 12.1977 15.2635 12.3199 14.8724C11.5732 14.9562 10.7959 15 10 15C9.20411 15 8.42683 14.9562 7.68012 14.8724ZM14.4961 14.4961C14.2971 15.3271 14.0433 16.0926 13.7422 16.7701C13.682 16.9057 13.6194 17.0388 13.5544 17.169C15.1184 16.3921 16.3921 15.1184 17.169 13.5544C17.0388 13.6194 16.9057 13.682 16.7701 13.7422C16.0926 14.0433 15.3271 14.2971 14.4961 14.4961ZM17.169 6.44561C17.0388 6.38064 16.9057 6.31802 16.7701 6.25776C16.0926 5.95666 15.3271 5.70286 14.4961 5.50385C14.2971 4.67291 14.0433 3.90739 13.7422 3.2299C13.682 3.09431 13.6194 2.96122 13.5544 2.83099C15.1184 3.60792 16.3921 4.8816 17.169 6.44561ZM14.8724 7.68012C15.2635 7.80231 15.6266 7.93818 15.9578 8.08538C16.6958 8.41337 17.2311 8.77801 17.5683 9.1324C17.9007 9.48164 18 9.7731 18 10C18 10.2269 17.9007 10.5184 17.5683 10.8676C17.2311 11.222 16.6958 11.5866 15.9578 11.9146C15.6266 12.0618 15.2635 12.1977 14.8724 12.3199C14.9562 11.5732 15 10.7959 15 10C15 9.20411 14.9562 8.42683 14.8724 7.68012ZM20 10C20 15.5228 15.5228 20 10 20C4.47715 20 0 15.5228 0 10C0 4.47715 4.47715 0 10 0C15.5228 0 20 4.47715 20 10Z" fill="#234A71"/>
</svg>
