<svg width="20" height="20" viewBox="0 0 20 20" fill="none" xmlns="http://www.w3.org/2000/svg">
<path d="M17.9 7.4C17.8 7.4 17.8 7.4 17.7 7.3C17.4 7.1 17.2 6.6 17.5 6.3C18.2 5.2 18 3.9 17.1 3C16.2 2.1 14.9 1.9 13.8 2.6C13.7 2.6 13.7 2.7 13.6 2.7C13.4 2.7 13.2 2.7 13.1 2.6C12.9 2.5 12.8 2.3 12.8 2.2C12.3 0.8 11.3 0 10 0C8.7 0 7.7 0.8 7.4 2.1C7.3 2.3 7.1 2.5 6.9 2.6C6.7 2.7 6.5 2.6 6.3 2.5C5.2 1.9 3.8 2 2.9 2.9C2 3.8 1.9 5.2 2.5 6.3C2.5 6.4 2.6 6.4 2.6 6.5C2.6 6.7 2.6 6.9 2.5 7C2.4 7.2 2.3 7.3 2.1 7.4C0.8 7.7 0 8.7 0 10C0 11.3 0.8 12.3 2.1 12.6C2.2 12.6 2.2 12.6 2.3 12.7C2.6 12.9 2.8 13.4 2.5 13.7C1.8 14.8 2 16.1 2.9 17C3.8 17.9 5.1 18.1 6.2 17.4C6.3 17.4 6.3 17.3 6.4 17.3C6.6 17.3 6.8 17.3 6.9 17.4C7.1 17.5 7.2 17.7 7.2 17.8C7.7 19.2 8.7 20 10 20C11.3 20 12.3 19.2 12.6 17.9C12.6 17.8 12.6 17.8 12.7 17.7C12.9 17.4 13.4 17.2 13.7 17.5C14.8 18.2 16.1 18 17 17.1C17.9 16.2 18.1 14.9 17.4 13.8C17.4 13.7 17.3 13.7 17.3 13.6C17.3 13.4 17.3 13.2 17.4 13.1C17.5 12.9 17.7 12.8 17.8 12.8C19 12.5 19.9 11.4 19.9 10.2C20 8.7 19.2 7.7 17.9 7.4ZM17.4 10.7C16.7 10.9 16.1 11.3 15.7 11.9C15.3 12.5 15.2 13.3 15.4 14C15.5 14.3 15.6 14.5 15.7 14.8C16 15.3 15.7 15.6 15.6 15.7C15.5 15.8 15.2 16.1 14.7 15.8C13.4 15 11.7 15.4 11 16.7C10.9 16.9 10.7 17.2 10.7 17.5C10.6 18 10.1 18 10 18C9.9 18 9.4 18 9.3 17.4C9.1 16.7 8.7 16.1 8.1 15.7C7.7 15.4 7.2 15.3 6.7 15.3C6.5 15.3 6.3 15.3 6.1 15.4C5.8 15.5 5.6 15.6 5.3 15.7C4.8 16 4.5 15.7 4.4 15.6C4.3 15.5 4 15.2 4.3 14.7C5.1 13.4 4.7 11.7 3.4 11C3.2 10.9 2.9 10.7 2.6 10.7C2 10.6 2 10.1 2 10C2 9.9 2 9.4 2.6 9.3C4 8.9 4.9 7.5 4.6 6C4.5 5.7 4.4 5.5 4.2 5.2C4 4.8 4.2 4.4 4.3 4.3C4.4 4.2 4.8 4 5.2 4.2C6 4.7 6.9 4.8 7.7 4.4C8.5 4.1 9.1 3.4 9.3 2.5C9.4 2 9.9 2 10 2C10.1 2 10.6 2 10.7 2.6C10.9 3.3 11.3 3.9 11.9 4.3C12.5 4.7 13.3 4.8 14 4.6C14.3 4.5 14.5 4.4 14.8 4.3C15.3 4 15.6 4.3 15.7 4.4C15.8 4.5 16.1 4.8 15.8 5.3C15 6.6 15.4 8.3 16.7 9C16.9 9.1 17.2 9.3 17.5 9.3C18 9.4 18 9.9 18 10C18 10.1 18 10.6 17.4 10.7ZM10 6C7.8 6 6 7.8 6 10C6 12.2 7.8 14 10 14C12.2 14 14 12.2 14 10C14 7.8 12.2 6 10 6ZM10 12C8.9 12 8 11.1 8 10C8 8.9 8.9 8 10 8C11.1 8 12 8.9 12 10C12 11.1 11.1 12 10 12Z" fill="#234A71"/>
</svg>
