<svg width="20" height="20" viewBox="0 0 20 20" fill="none" xmlns="http://www.w3.org/2000/svg">
<path fill-rule="evenodd" clip-rule="evenodd" d="M15.444 2.66667C14.4009 2.66667 13.5553 3.51229 13.5553 4.55541C13.5553 4.82687 13.6125 5.08496 13.7156 5.31824C13.7223 5.32973 13.7287 5.34144 13.7348 5.35335C13.7478 5.37869 13.7595 5.4044 13.7697 5.43037C14.0853 6.03298 14.7166 6.44416 15.444 6.44416C16.4871 6.44416 17.3328 5.59854 17.3328 4.55541C17.3328 3.51229 16.4871 2.66667 15.444 2.66667ZM11.8886 4.55541C11.8886 4.81934 11.9174 5.07656 11.9719 5.32409L7.29511 7.73335C6.64296 6.94584 5.65777 6.44416 4.55541 6.44416C2.59181 6.44416 1 8.03597 1 9.99957C1 11.9632 2.59181 13.555 4.55541 13.555C5.65777 13.555 6.64296 13.0533 7.2951 12.2658L11.9719 14.6751C11.9174 14.9226 11.8886 15.1798 11.8886 15.4437C11.8886 17.4073 13.4804 18.9991 15.444 18.9991C17.4076 18.9991 18.9994 17.4073 18.9994 15.4437C18.9994 13.4801 17.4076 11.8883 15.444 11.8883C14.3416 11.8883 13.3565 12.39 12.7043 13.1775L8.02751 10.7683C8.08207 10.5207 8.11083 10.2635 8.11083 9.99957C8.11083 9.73563 8.08207 9.47841 8.02751 9.23087L12.7043 6.82162C13.3565 7.60913 14.3416 8.11083 15.444 8.11083C17.4076 8.11083 18.9994 6.51902 18.9994 4.55541C18.9994 2.59181 17.4076 1 15.444 1C13.4804 1 11.8886 2.59181 11.8886 4.55541ZM6.28394 10.762C6.38695 10.5288 6.44416 10.2709 6.44416 9.99957C6.44416 9.72826 6.38695 9.4703 6.28394 9.23711C6.27724 9.2255 6.27079 9.21368 6.26459 9.20164C6.25147 9.17617 6.23979 9.15035 6.22952 9.12425C5.9139 8.52184 5.28265 8.11082 4.55541 8.11082C3.51229 8.11082 2.66667 8.95645 2.66667 9.99957C2.66667 11.0427 3.51229 11.8883 4.55541 11.8883C5.28266 11.8883 5.9139 11.4773 6.22952 10.8749C6.23979 10.8488 6.25147 10.823 6.26459 10.7975C6.27079 10.7855 6.27724 10.7736 6.28394 10.762ZM13.7156 14.6809C13.7223 14.6694 13.7287 14.6577 13.7348 14.6458C13.7478 14.6205 13.7595 14.5948 13.7697 14.5688C14.0853 13.9662 14.7166 13.555 15.444 13.555C16.4871 13.555 17.3328 14.4006 17.3328 15.4437C17.3328 16.4869 16.4871 17.3325 15.444 17.3325C14.4009 17.3325 13.5553 16.4869 13.5553 15.4437C13.5553 15.1723 13.6125 14.9142 13.7156 14.6809Z" fill="#234A71"/>
</svg>
