<svg width="20" height="20" viewBox="0 0 20 20" fill="none" xmlns="http://www.w3.org/2000/svg">
<path fill-rule="evenodd" clip-rule="evenodd" d="M7 1C6.46957 1 5.96086 1.21071 5.58579 1.58579C5.21071 1.96086 5 2.46957 5 3C5 3.26522 4.89464 3.51957 4.70711 3.70711C4.51957 3.89464 4.26522 4 4 4H3C2.20435 4 1.44129 4.31607 0.87868 4.87868C0.31607 5.44129 0 6.20435 0 7V16C0 16.7956 0.316071 17.5587 0.87868 18.1213C1.44129 18.6839 2.20435 19 3 19H17C17.7957 19 18.5587 18.6839 19.1213 18.1213C19.6839 17.5587 20 16.7957 20 16V7C20 6.20435 19.6839 5.44129 19.1213 4.87868C18.5587 4.31607 17.7957 4 17 4H16C15.7348 4 15.4804 3.89464 15.2929 3.70711C15.1054 3.51957 15 3.26522 15 3C15 2.46956 14.7893 1.96086 14.4142 1.58579C14.0391 1.21071 13.5304 1 13 1H7ZM7 3L13 3C13 3.79565 13.3161 4.55871 13.8787 5.12132C14.4413 5.68393 15.2043 6 16 6H17C17.2652 6 17.5196 6.10536 17.7071 6.29289C17.8946 6.48043 18 6.73478 18 7V16C18 16.2652 17.8946 16.5196 17.7071 16.7071C17.5196 16.8946 17.2652 17 17 17H3C2.73478 17 2.48043 16.8946 2.29289 16.7071C2.10536 16.5196 2 16.2652 2 16V7C2 6.73478 2.10536 6.48043 2.29289 6.29289C2.48043 6.10536 2.73478 6 3 6H4C4.79565 6 5.55871 5.68393 6.12132 5.12132C6.68393 4.55871 7 3.79565 7 3ZM7 11C7 9.34315 8.34315 8 10 8C11.6569 8 13 9.34315 13 11C13 12.6569 11.6569 14 10 14C8.34315 14 7 12.6569 7 11ZM10 6C7.23858 6 5 8.23858 5 11C5 13.7614 7.23858 16 10 16C12.7614 16 15 13.7614 15 11C15 8.23858 12.7614 6 10 6Z" fill="#234A71"/>
</svg>
