<?xml version="1.0" encoding="utf-8"?>
<!-- Generator: Adobe Illustrator 21.0.0, SVG Export Plug-In . SVG Version: 6.00 Build 0)  -->
<svg version="1.1" id="Layer_1" xmlns="http://www.w3.org/2000/svg" xmlns:xlink="http://www.w3.org/1999/xlink" x="0px" y="0px"
	 viewBox="0 0 512 512" style="enable-background:new 0 0 512 512;" xml:space="preserve">
<g>
	<path d="M201.6,344.4h-72.5c-12.3,0-23.8-2.5-34.4-6.9c-15.8-6.7-29.4-17.9-38.9-32c-4.8-7.1-8.5-14.8-11.1-23.1
		c-2.6-8.3-4-17.1-4-26.3c0-12.3,2.5-23.8,6.9-34.4c6.7-15.8,17.9-29.4,32-38.9c7.1-4.8,14.8-8.5,23.1-11.1c8.3-2.6,17.1-4,26.3-4
		h72.5c11.3,0,20.4-9.1,20.4-20.4s-9.1-20.4-20.4-20.4H129c-17.8,0-34.8,3.6-50.3,10.2c-23.2,9.8-42.9,26.2-56.8,46.8
		c-7,10.3-12.5,21.7-16.3,33.8C2,229.8,0,242.7,0,256c0,17.8,3.6,34.8,10.2,50.3c9.8,23.2,26.2,42.9,46.8,56.8
		c10.3,7,21.7,12.5,33.8,16.3c12.1,3.8,25.1,5.8,38.4,5.8h72.5c11.3,0,20.4-9.1,20.4-20.4C222,353.5,212.9,344.4,201.6,344.4z"/>
	<path d="M502,205.6c-9.8-23.2-26.2-42.9-46.8-56.8c-10.3-7-21.7-12.5-33.8-16.3s-25.1-5.8-38.4-5.8h-72.5
		c-11.3,0-20.4,9.1-20.4,20.4c-0.1,11.4,9,20.5,20.3,20.5h72.5c12.3,0,23.8,2.5,34.4,6.9c15.8,6.7,29.4,17.9,38.9,32
		c4.8,7.1,8.5,14.8,11.1,23.1c2.6,8.3,4,17.1,4,26.3c0,12.3-2.5,23.8-6.9,34.4c-6.7,15.8-17.9,29.4-32,38.9
		c-7.1,4.8-14.8,8.5-23.1,11.1c-8.3,2.6-17.1,4-26.3,4h-72.5c-11.3,0-20.4,9.1-20.4,20.4s9.1,20.4,20.4,20.4H383
		c17.8,0,34.8-3.6,50.3-10.2c23.2-9.8,42.9-26.2,56.8-46.8c7-10.3,12.5-21.7,16.3-33.8s5.8-25.1,5.8-38.4
		C512.2,238.1,508.6,221.1,502,205.6z"/>
	<path d="M130.6,256c0,11.3,9.1,20.4,20.4,20.4h212.3c11.3,0,20.4-9.1,20.4-20.4s-9.1-20.4-20.4-20.4H151
		C139.7,235.6,130.6,244.7,130.6,256z"/>
</g>
</svg>
