<svg width="21" height="21" viewBox="0 0 21 21" fill="none" xmlns="http://www.w3.org/2000/svg">
<g clip-path="url(#clip0_2067_3209)">
<path d="M13.0892 16.1892C12.7986 16.1892 12.5463 15.9731 12.5086 15.6772C12.4679 15.3562 12.6949 15.0629 13.0158 15.022C14.8673 14.7861 16.5254 14.2844 17.6844 13.6091C18.7444 12.9915 19.3281 12.2655 19.3281 11.5648C19.3281 10.7926 18.6451 10.1607 18.072 9.76643C17.8054 9.58302 17.738 9.21834 17.9214 8.95161C18.1048 8.68504 18.4696 8.6176 18.7362 8.80101C19.8901 9.59477 20.5 10.5504 20.5 11.565C20.5 12.7164 19.7305 13.7734 18.2745 14.6216C16.9639 15.3852 15.1968 15.9256 13.164 16.1846C13.1388 16.1876 13.1138 16.1892 13.0892 16.1892Z" fill="black"/>
<path d="M10.3572 15.3497L8.79468 13.7872C8.5658 13.5583 8.19485 13.5583 7.96597 13.7872C7.73724 14.0159 7.73724 14.387 7.96597 14.6158L8.42252 15.0723C6.67203 14.8915 5.08176 14.4839 3.85037 13.8917C2.46594 13.226 1.67188 12.3778 1.67188 11.5648C1.67188 10.8752 2.24042 10.1585 3.27267 9.54664C3.55115 9.3817 3.64301 9.0222 3.47806 8.74388C3.31296 8.46541 2.95346 8.37355 2.67514 8.5385C0.87735 9.60417 0.5 10.7724 0.5 11.5648C0.5 12.8648 1.50952 14.0663 3.34256 14.948C4.76529 15.632 6.60565 16.0902 8.61066 16.2675L7.96597 16.9122C7.73724 17.1409 7.73724 17.512 7.96597 17.7409C8.08041 17.8552 8.23041 17.9124 8.3804 17.9124C8.53024 17.9124 8.68024 17.8552 8.79468 17.7409L10.3572 16.1784C10.5859 15.9495 10.5859 15.5784 10.3572 15.3497Z" fill="black"/>
<path d="M6.63681 10.3917V10.2507C6.63681 9.75342 6.3324 9.65698 5.92422 9.65698C5.67184 9.65698 5.59021 9.43436 5.59021 9.21173C5.59021 8.98895 5.67184 8.76633 5.92422 8.76633C6.20621 8.76633 6.50314 8.72925 6.50314 8.12805C6.50314 7.6976 6.25824 7.59369 5.95383 7.59369C5.59021 7.59369 5.40466 7.6828 5.40466 7.97226C5.40466 8.22449 5.29327 8.39523 4.86282 8.39523C4.32846 8.39523 4.26178 8.28384 4.26178 7.92755C4.26178 7.34879 4.67728 6.59912 5.95383 6.59912C6.89651 6.59912 7.60895 6.94046 7.60895 7.94251C7.60895 8.48419 7.4086 8.98895 7.03751 9.1597C7.47543 9.32297 7.79449 9.64951 7.79449 10.2507V10.3917C7.79449 11.6089 6.95587 12.0691 5.91675 12.0691C4.6402 12.0691 4.15039 11.2898 4.15039 10.6664C4.15039 10.3323 4.29138 10.2432 4.69955 10.2432C5.17456 10.2432 5.29327 10.3471 5.29327 10.6293C5.29327 10.9781 5.61996 11.0597 5.95383 11.0597C6.45859 11.0597 6.63681 10.8742 6.63681 10.3917Z" fill="black"/>
<path d="M12.2995 10.2507V10.3175C12.2995 11.5941 11.5053 12.0691 10.4811 12.0691C9.45697 12.0691 8.65527 11.5941 8.65527 10.3175V8.35068C8.65527 7.07413 9.4791 6.59912 10.548 6.59912C11.8022 6.59912 12.2995 7.37839 12.2995 7.99439C12.2995 8.35068 12.1288 8.46191 11.7577 8.46191C11.4386 8.46191 11.1565 8.38028 11.1565 8.03894C11.1565 7.75696 10.8597 7.60849 10.5109 7.60849C10.073 7.60849 9.81311 7.83859 9.81311 8.35068V9.01856C10.0507 8.75885 10.3847 8.69202 10.741 8.69202C11.5869 8.69202 12.2995 9.06311 12.2995 10.2507ZM9.81311 10.3992C9.81311 10.9113 10.0655 11.1339 10.4811 11.1339C10.8968 11.1339 11.1417 10.9113 11.1417 10.3992V10.3323C11.1417 9.7905 10.8968 9.58267 10.4737 9.58267C10.073 9.58267 9.81311 9.7757 9.81311 10.2655V10.3992Z" fill="black"/>
<path d="M13.1973 10.3175V8.35068C13.1973 7.07413 13.9913 6.59912 15.0157 6.59912C16.0398 6.59912 16.8414 7.07413 16.8414 8.35068V10.3175C16.8414 11.5941 16.0398 12.0691 15.0157 12.0691C13.9913 12.0691 13.1973 11.5941 13.1973 10.3175ZM15.6835 8.35068C15.6835 7.83859 15.4313 7.60849 15.0157 7.60849C14.6 7.60849 14.3551 7.83859 14.3551 8.35068V10.3175C14.3551 10.8296 14.6 11.0597 15.0157 11.0597C15.4313 11.0597 15.6835 10.8296 15.6835 10.3175V8.35068Z" fill="black"/>
<path d="M18.248 6.59375C17.2787 6.59375 16.4902 5.80518 16.4902 4.83594C16.4902 3.8667 17.2787 3.07812 18.248 3.07812C19.2173 3.07812 20.0059 3.8667 20.0059 4.83594C20.0059 5.80518 19.2173 6.59375 18.248 6.59375ZM18.248 4.25C17.9249 4.25 17.6621 4.51291 17.6621 4.83594C17.6621 5.15912 17.9249 5.42188 18.248 5.42188C18.5711 5.42188 18.834 5.15912 18.834 4.83594C18.834 4.51291 18.5711 4.25 18.248 4.25Z" fill="black"/>
</g>
<defs>
<clipPath id="clip0_2067_3209">
<rect width="20" height="20" fill="white" transform="translate(0.5 0.5)"/>
</clipPath>
</defs>
</svg>
