<svg width="18" height="19" viewBox="0 0 18 19" fill="none" xmlns="http://www.w3.org/2000/svg">
<path fill-rule="evenodd" clip-rule="evenodd" d="M15.0667 9.5V9.9083L16.1096 10.8377C16.3021 11.002 16.4299 11.2264 16.4712 11.4724C16.5125 11.7184 16.4646 11.9707 16.3358 12.1862L15.0778 14.3351C14.981 14.4983 14.8419 14.6338 14.6743 14.7281C14.5068 14.8224 14.3167 14.8722 14.1232 14.8724C14.0032 14.8732 13.884 14.8551 13.77 14.8186L12.4347 14.3781C12.2013 14.5279 11.958 14.6625 11.7064 14.781L11.425 16.1349C11.3745 16.3822 11.2363 16.6044 11.0346 16.7625C10.8328 16.9206 10.5804 17.0046 10.3214 16.9998H7.717C7.45805 17.0046 7.2056 16.9206 7.00385 16.7625C6.8021 16.6044 6.6639 16.3822 6.61344 16.1349L6.33203 14.781C6.08217 14.6625 5.84069 14.5279 5.6092 14.3781L4.26837 14.8186C4.15444 14.8551 4.03516 14.8732 3.91523 14.8724C3.72171 14.8722 3.53164 14.8224 3.3641 14.7281C3.19655 14.6338 3.05742 14.4983 2.96065 14.3351L1.65845 12.1862C1.52376 11.9686 1.47258 11.7117 1.514 11.4609C1.55541 11.2101 1.68674 10.9817 1.88468 10.8162L2.92755 9.91367V9.0917L1.88468 8.16228C1.69218 7.99796 1.56435 7.77358 1.52307 7.52758C1.4818 7.28157 1.52966 7.02925 1.65845 6.81382L2.96065 4.66488C3.05742 4.50171 3.19655 4.36617 3.3641 4.27188C3.53164 4.17758 3.72171 4.12784 3.91523 4.12765C4.03396 4.11978 4.15322 4.13067 4.26837 4.15988L5.58161 4.62191C5.815 4.4721 6.05831 4.33749 6.30996 4.21898L6.59137 2.86515C6.64183 2.61781 6.78003 2.39562 6.98178 2.2375C7.18353 2.07937 7.43598 1.99537 7.69493 2.0002H10.2773C10.5362 1.99537 10.7887 2.07937 10.9904 2.2375C11.1922 2.39562 11.3304 2.61781 11.3808 2.86515L11.6622 4.21898C11.9121 4.33752 12.1536 4.47213 12.3851 4.62191L13.7259 4.18137C13.8398 4.1449 13.9591 4.12675 14.079 4.12765C14.2726 4.12784 14.4626 4.17758 14.6302 4.27188C14.7977 4.36617 14.9368 4.50171 15.0336 4.66488L16.3358 6.81382C16.4724 7.02957 16.5263 7.2854 16.4879 7.53608C16.4496 7.78677 16.3214 8.01618 16.1261 8.18377L15.0667 9.08633V9.5ZM12.1864 13.1747L14.079 13.7979L15.3812 11.6489L13.8804 10.322C13.9824 9.76586 13.9824 9.19654 13.8804 8.64042L15.3812 7.35106L14.079 5.20212L12.1809 5.80382C11.7363 5.44341 11.2327 5.15829 10.6911 4.96036L10.2993 3.05318H7.69493L7.30317 4.98185C6.75724 5.17432 6.25089 5.45993 5.80784 5.82531L3.91523 5.20212L2.61303 7.35106L4.11388 8.67803C4.01185 9.23414 4.01185 9.80346 4.11388 10.3596L2.61303 11.6489L3.91523 13.7979L5.81336 13.1962C6.25794 13.5566 6.76155 13.8417 7.30317 14.0396L7.69493 15.9468H10.2993L10.6911 14.0181C11.237 13.8257 11.7434 13.5401 12.1864 13.1747ZM7.1606 12.1801C7.70504 12.5343 8.34512 12.7233 8.99992 12.7233C9.43591 12.7276 9.86841 12.6472 10.2721 12.4867C10.6757 12.3263 11.0425 12.089 11.3508 11.7888C11.6591 11.4886 11.9028 11.1316 12.0676 10.7385C12.2324 10.3455 12.315 9.92442 12.3106 9.49992C12.3106 8.86239 12.1164 8.23917 11.7526 7.70909C11.3889 7.179 10.8718 6.76585 10.2669 6.52188C9.66191 6.2779 8.99624 6.21407 8.35403 6.33844C7.71182 6.46282 7.12192 6.76982 6.65891 7.22062C6.1959 7.67142 5.88059 8.24578 5.75285 8.87106C5.6251 9.49634 5.69067 10.1445 5.94124 10.7335C6.19182 11.3225 6.61616 11.8259 7.1606 12.1801ZM8.14731 7.50108C8.41817 7.39542 8.70821 7.34436 8.99992 7.35098C9.29162 7.34436 9.58167 7.39542 9.85252 7.50108C10.1234 7.60673 10.3694 7.76477 10.5757 7.96566C10.782 8.16654 10.9444 8.40608 11.0529 8.66979C11.1614 8.9335 11.2138 9.21591 11.207 9.49992C11.2138 9.78393 11.1614 10.0663 11.0529 10.33C10.9444 10.5938 10.782 10.8333 10.5757 11.0342C10.3694 11.2351 10.1234 11.3931 9.85252 11.4988C9.58167 11.6044 9.29162 11.6555 8.99992 11.6489C8.70821 11.6555 8.41817 11.6044 8.14731 11.4988C7.87646 11.3931 7.63043 11.2351 7.42411 11.0342C7.21779 10.8333 7.05547 10.5938 6.94696 10.33C6.83844 10.0663 6.786 9.78393 6.79279 9.49992C6.786 9.21591 6.83844 8.9335 6.94696 8.66979C7.05547 8.40608 7.21779 8.16654 7.42411 7.96566C7.63043 7.76477 7.87646 7.60673 8.14731 7.50108Z" fill="black"/>
<path d="M15.0667 9.9083H14.9167V9.97554L14.9669 10.0203L15.0667 9.9083ZM16.1096 10.8377L16.0098 10.9497L16.0122 10.9518L16.1096 10.8377ZM16.3358 12.1862L16.2071 12.1092L16.2064 12.1104L16.3358 12.1862ZM15.0778 14.3351L15.2068 14.4116L15.2072 14.4109L15.0778 14.3351ZM14.6743 14.7281L14.7479 14.8588L14.6743 14.7281ZM14.1232 14.8724L14.123 14.7223L14.1221 14.7224L14.1232 14.8724ZM13.77 14.8186L13.723 14.9611L13.7243 14.9615L13.77 14.8186ZM12.4347 14.3781L12.4817 14.2356L12.4138 14.2133L12.3537 14.2519L12.4347 14.3781ZM11.7064 14.781L11.6425 14.6453L11.5747 14.6772L11.5595 14.7505L11.7064 14.781ZM11.425 16.1349L11.2781 16.1043L11.278 16.1049L11.425 16.1349ZM11.0346 16.7625L11.1271 16.8806L11.0346 16.7625ZM10.3214 16.9998L10.3242 16.8498H10.3214V16.9998ZM7.717 16.9998V16.8498L7.7142 16.8498L7.717 16.9998ZM7.00385 16.7625L6.91132 16.8806L7.00385 16.7625ZM6.61344 16.1349L6.76041 16.1049L6.7603 16.1043L6.61344 16.1349ZM6.33203 14.781L6.47889 14.7505L6.46371 14.6775L6.39633 14.6455L6.33203 14.781ZM5.6092 14.3781L5.69068 14.2522L5.63049 14.2132L5.56238 14.2356L5.6092 14.3781ZM4.26837 14.8186L4.31411 14.9615L4.31519 14.9611L4.26837 14.8186ZM3.91523 14.8724L3.91635 14.7224L3.91538 14.7224L3.91523 14.8724ZM3.3641 14.7281L3.43766 14.5974H3.43766L3.3641 14.7281ZM2.96065 14.3351L3.08968 14.2586L3.08894 14.2574L2.96065 14.3351ZM1.65845 12.1862L1.78674 12.1084L1.78599 12.1072L1.65845 12.1862ZM1.514 11.4609L1.366 11.4364L1.514 11.4609ZM1.88468 10.8162L1.9809 10.9313L1.98284 10.9296L1.88468 10.8162ZM2.92755 9.91367L3.02571 10.0271L3.07755 9.98223V9.91367H2.92755ZM2.92755 9.0917H3.07755V9.02446L3.02735 8.97972L2.92755 9.0917ZM1.88468 8.16228L1.98451 8.05028L1.98207 8.0482L1.88468 8.16228ZM1.52307 7.52758L1.37514 7.55239H1.37514L1.52307 7.52758ZM1.65845 6.81382L1.53017 6.73609L1.52971 6.73685L1.65845 6.81382ZM2.96065 4.66488L3.08894 4.74262L3.08968 4.74139L2.96065 4.66488ZM3.3641 4.27188L3.43766 4.4026H3.43766L3.3641 4.27188ZM3.91523 4.12765L3.91538 4.27797L3.92515 4.27732L3.91523 4.12765ZM4.26837 4.15988L4.31836 4.01781L4.30526 4.01449L4.26837 4.15988ZM5.58161 4.62191L5.53183 4.7634L5.60096 4.78773L5.66264 4.74814L5.58161 4.62191ZM6.30996 4.21898L6.37387 4.35468L6.44159 4.32279L6.45682 4.24951L6.30996 4.21898ZM6.59137 2.86515L6.73823 2.89567L6.73834 2.89513L6.59137 2.86515ZM6.98178 2.2375L6.88925 2.11944L6.98178 2.2375ZM7.69493 2.0002L7.69213 2.1502H7.69493V2.0002ZM10.2773 2.0002V2.15022L10.2801 2.15017L10.2773 2.0002ZM10.9904 2.2375L11.0829 2.11944L10.9904 2.2375ZM11.3808 2.86515L11.2338 2.89513L11.234 2.89567L11.3808 2.86515ZM11.6622 4.21898L11.5154 4.24951L11.5305 4.32253L11.5979 4.3545L11.6622 4.21898ZM12.3851 4.62191L12.3036 4.74784L12.3638 4.78679L12.4319 4.76441L12.3851 4.62191ZM13.7259 4.18137L13.6802 4.03851L13.6791 4.03887L13.7259 4.18137ZM14.079 4.12765L14.0779 4.27765L14.0789 4.27765L14.079 4.12765ZM15.0336 4.66488L14.9046 4.74139L14.9053 4.74262L15.0336 4.66488ZM16.3358 6.81382L16.2075 6.89158L16.2091 6.89407L16.3358 6.81382ZM16.4879 7.53608L16.6362 7.55878V7.55878L16.4879 7.53608ZM16.1261 8.18377L16.2234 8.29796L16.2238 8.2976L16.1261 8.18377ZM15.0667 9.08633L14.9694 8.97215L14.9167 9.01706V9.08633H15.0667ZM14.079 13.7979L14.0321 13.9404L14.1455 13.9777L14.2073 13.8756L14.079 13.7979ZM12.1864 13.1747L12.2333 13.0322L12.1548 13.0063L12.091 13.059L12.1864 13.1747ZM15.3812 11.6489L15.5095 11.7267L15.5744 11.6195L15.4806 11.5366L15.3812 11.6489ZM13.8804 10.322L13.7329 10.2949L13.7176 10.3782L13.781 10.4343L13.8804 10.322ZM13.8804 8.64042L13.7826 8.52664L13.7173 8.58277L13.7329 8.66749L13.8804 8.64042ZM15.3812 7.35106L15.479 7.46484L15.5754 7.38202L15.5095 7.27332L15.3812 7.35106ZM14.079 5.20212L14.2073 5.12438L14.1462 5.02348L14.0337 5.05913L14.079 5.20212ZM12.1809 5.80382L12.0864 5.92034L12.1492 5.97123L12.2262 5.94681L12.1809 5.80382ZM10.6911 4.96036L10.5442 4.99055L10.561 5.07252L10.6396 5.10125L10.6911 4.96036ZM10.2993 3.05318L10.4463 3.023L10.4217 2.90318H10.2993V3.05318ZM7.69493 3.05318V2.90318H7.57234L7.54793 3.02332L7.69493 3.05318ZM7.30317 4.98185L7.35304 5.12332L7.43324 5.09505L7.45016 5.01171L7.30317 4.98185ZM5.80784 5.82531L5.76093 5.96779L5.83948 5.99365L5.90328 5.94103L5.80784 5.82531ZM3.91523 5.20212L3.96215 5.05964L3.8488 5.02232L3.78695 5.12438L3.91523 5.20212ZM2.61303 7.35106L2.48475 7.27332L2.41983 7.38046L2.51368 7.46343L2.61303 7.35106ZM4.11388 8.67803L4.26141 8.7051L4.2767 8.62177L4.21323 8.56565L4.11388 8.67803ZM4.11388 10.3596L4.21162 10.4734L4.27696 10.4172L4.26141 10.3325L4.11388 10.3596ZM2.61303 11.6489L2.51529 11.5352L2.41888 11.618L2.48475 11.7267L2.61303 11.6489ZM3.91523 13.7979L3.78695 13.8756L3.84809 13.9765L3.96056 13.9409L3.91523 13.7979ZM5.81336 13.1962L5.90782 13.0797L5.84505 13.0288L5.76803 13.0532L5.81336 13.1962ZM7.30317 14.0396L7.4501 14.0095L7.43326 13.9275L7.35465 13.8988L7.30317 14.0396ZM7.69493 15.9468L7.548 15.977L7.57261 16.0968H7.69493V15.9468ZM10.2993 15.9468V16.0968H10.4219L10.4463 15.9767L10.2993 15.9468ZM10.6911 14.0181L10.6412 13.8767L10.561 13.905L10.5441 13.9883L10.6911 14.0181ZM8.99992 12.7233L9.0014 12.5733H8.99992V12.7233ZM7.1606 12.1801L7.2424 12.0544L7.1606 12.1801ZM10.2721 12.4867L10.3275 12.6261H10.3275L10.2721 12.4867ZM12.0676 10.7385L11.9293 10.6805L12.0676 10.7385ZM12.3106 9.49992H12.1606L12.1606 9.50148L12.3106 9.49992ZM11.7526 7.70909L11.629 7.79396L11.7526 7.70909ZM8.35403 6.33844L8.32551 6.19118L8.35403 6.33844ZM6.65891 7.22062L6.76355 7.3281L6.65891 7.22062ZM5.94124 10.7335L6.07927 10.6747L5.94124 10.7335ZM8.99992 7.35098L8.99651 7.50109L9.00332 7.50094L8.99992 7.35098ZM11.0529 8.66979L10.9142 8.72687L11.0529 8.66979ZM11.207 9.49992L11.0569 9.49633L11.0571 9.50351L11.207 9.49992ZM9.85252 11.4988L9.90703 11.6385H9.90703L9.85252 11.4988ZM8.99992 11.6489L9.00332 11.4987L8.99651 11.4989L8.99992 11.6489ZM8.14731 11.4988L8.0928 11.6385H8.0928L8.14731 11.4988ZM7.42411 11.0342L7.52875 10.9267L7.42411 11.0342ZM6.79279 9.49992L6.94292 9.50351L6.94275 9.49633L6.79279 9.49992ZM6.94696 8.66979L7.08567 8.72687L6.94696 8.66979ZM7.42411 7.96566L7.52875 8.07313L7.42411 7.96566ZM15.2167 9.9083V9.5H14.9167V9.9083H15.2167ZM16.2094 10.7257L15.1665 9.79632L14.9669 10.0203L16.0098 10.9497L16.2094 10.7257ZM16.6191 11.4476C16.5719 11.1663 16.4259 10.9105 16.207 10.7236L16.0122 10.9518C16.1783 11.0936 16.2879 11.2866 16.3233 11.4972L16.6191 11.4476ZM16.4646 12.2631C16.6115 12.0174 16.6663 11.729 16.6191 11.4476L16.3233 11.4972C16.3586 11.7079 16.3177 11.9241 16.2071 12.1092L16.4646 12.2631ZM15.2072 14.4109L16.4653 12.262L16.2064 12.1104L14.9483 14.2593L15.2072 14.4109ZM14.7479 14.8588C14.938 14.7518 15.0964 14.5977 15.2068 14.4116L14.9487 14.2586C14.8656 14.3989 14.7457 14.5158 14.6007 14.5974L14.7479 14.8588ZM14.1233 15.0224C14.3424 15.0221 14.5578 14.9658 14.7479 14.8588L14.6007 14.5974C14.4558 14.679 14.291 14.7222 14.123 14.7224L14.1233 15.0224ZM13.7243 14.9615C13.8534 15.0028 13.9885 15.0234 14.1243 15.0223L14.1221 14.7224C14.018 14.7231 13.9145 14.7074 13.8158 14.6758L13.7243 14.9615ZM12.3877 14.5205L13.723 14.9611L13.817 14.6762L12.4817 14.2356L12.3877 14.5205ZM11.7703 14.9167C12.0278 14.7954 12.2769 14.6577 12.5157 14.5043L12.3537 14.2519C12.1258 14.3981 11.8882 14.5296 11.6425 14.6453L11.7703 14.9167ZM11.5718 16.1654L11.8532 14.8115L11.5595 14.7505L11.2781 16.1043L11.5718 16.1654ZM11.1271 16.8806C11.3564 16.7008 11.5142 16.4477 11.5719 16.1648L11.278 16.1049C11.2348 16.3167 11.1162 16.5079 10.942 16.6444L11.1271 16.8806ZM10.3186 17.1498C10.6117 17.1552 10.8979 17.0602 11.1271 16.8806L10.942 16.6444C10.7677 16.781 10.549 16.854 10.3242 16.8498L10.3186 17.1498ZM7.717 17.1498H10.3214V16.8498H7.717V17.1498ZM6.91132 16.8806C7.14054 17.0602 7.42674 17.1552 7.7198 17.1498L7.7142 16.8498C7.48936 16.854 7.27067 16.781 7.09638 16.6444L6.91132 16.8806ZM6.46647 16.1648C6.52416 16.4477 6.68202 16.7008 6.91132 16.8806L7.09638 16.6444C6.92218 16.5079 6.80363 16.3167 6.76041 16.1049L6.46647 16.1648ZM6.18517 14.8115L6.46658 16.1654L6.7603 16.1043L6.47889 14.7505L6.18517 14.8115ZM5.52772 14.504C5.76474 14.6574 6.01196 14.7952 6.26774 14.9165L6.39633 14.6455C6.15238 14.5298 5.91665 14.3984 5.69068 14.2522L5.52772 14.504ZM4.31519 14.9611L5.65602 14.5206L5.56238 14.2356L4.22155 14.6761L4.31519 14.9611ZM3.91412 15.0223C4.0499 15.0234 4.18499 15.0028 4.31411 14.9615L4.22264 14.6758C4.12389 14.7074 4.02043 14.7231 3.91635 14.7224L3.91412 15.0223ZM3.29053 14.8588C3.48064 14.9658 3.69602 15.0221 3.91508 15.0224L3.91538 14.7224C3.7474 14.7222 3.58264 14.679 3.43766 14.5974L3.29053 14.8588ZM2.83163 14.4116C2.94199 14.5977 3.10039 14.7518 3.29053 14.8588L3.43766 14.5974C3.29271 14.5158 3.17284 14.3989 3.08968 14.2586L2.83163 14.4116ZM1.53017 12.2639L2.83237 14.4129L3.08894 14.2574L1.78674 12.1084L1.53017 12.2639ZM1.366 11.4364C1.31863 11.7233 1.37726 12.017 1.53092 12.2651L1.78599 12.1072C1.67026 11.9203 1.62653 11.7 1.66199 11.4853L1.366 11.4364ZM1.78848 10.7011C1.56343 10.8893 1.41336 11.1496 1.366 11.4364L1.66199 11.4853C1.69746 11.2705 1.81005 11.0741 1.98089 10.9313L1.78848 10.7011ZM2.82939 9.80025L1.78652 10.7028L1.98284 10.9296L3.02571 10.0271L2.82939 9.80025ZM2.77755 9.0917V9.91367H3.07755V9.0917H2.77755ZM1.78488 8.27427L2.82775 9.20368L3.02735 8.97972L1.98448 8.0503L1.78488 8.27427ZM1.37514 7.55239C1.42234 7.83372 1.56841 8.08952 1.7873 8.27637L1.98207 8.0482C1.81595 7.90639 1.70635 7.71343 1.67101 7.50276L1.37514 7.55239ZM1.52971 6.73685C1.38276 6.98265 1.32793 7.27102 1.37514 7.55239L1.67101 7.50276C1.63567 7.29212 1.67656 7.07585 1.7872 6.8908L1.52971 6.73685ZM2.83237 4.58715L1.53017 6.73609L1.78674 6.89156L3.08894 4.74262L2.83237 4.58715ZM3.29053 4.14116C3.10039 4.24817 2.942 4.40226 2.83163 4.58838L3.08968 4.74139C3.17284 4.60115 3.29271 4.48417 3.43766 4.4026L3.29053 4.14116ZM3.91508 3.97765C3.69602 3.97787 3.48064 4.03416 3.29053 4.14116L3.43766 4.4026C3.58264 4.321 3.7474 4.27782 3.91538 4.27765L3.91508 3.97765ZM4.30526 4.01449C4.1748 3.98139 4.03975 3.96907 3.90532 3.97798L3.92515 4.27732C4.02817 4.2705 4.13163 4.27995 4.23149 4.30528L4.30526 4.01449ZM5.63139 4.48041L4.31816 4.01838L4.21859 4.30138L5.53183 4.7634L5.63139 4.48041ZM6.24605 4.08327C5.98851 4.20456 5.73948 4.34233 5.50058 4.49567L5.66264 4.74814C5.89051 4.60186 6.12811 4.47042 6.37387 4.35468L6.24605 4.08327ZM6.44451 2.83462L6.1631 4.18845L6.45682 4.24951L6.73823 2.89567L6.44451 2.83462ZM6.88925 2.11944C6.65994 2.29916 6.50209 2.55235 6.4444 2.83516L6.73834 2.89513C6.78156 2.68326 6.90011 2.49209 7.07431 2.35555L6.88925 2.11944ZM7.69773 1.85022C7.40467 1.84476 7.11846 1.93978 6.88925 2.11944L7.07431 2.35555C7.2486 2.21895 7.46729 2.14598 7.69213 2.15017L7.69773 1.85022ZM10.2773 1.8502H7.69493V2.1502H10.2773V1.8502ZM11.0829 2.11944C10.8537 1.93978 10.5675 1.84476 10.2745 1.85022L10.2801 2.15017C10.5049 2.14598 10.7236 2.21895 10.8979 2.35555L11.0829 2.11944ZM11.5278 2.83516C11.4701 2.55235 11.3122 2.29916 11.0829 2.11944L10.8979 2.35555C11.0721 2.49209 11.1906 2.68326 11.2338 2.89513L11.5278 2.83516ZM11.8091 4.18845L11.5277 2.83462L11.234 2.89567L11.5154 4.24951L11.8091 4.18845ZM12.4665 4.49597C12.2295 4.34261 11.9823 4.20481 11.7265 4.08346L11.5979 4.3545C11.8419 4.47024 12.0776 4.60164 12.3036 4.74784L12.4665 4.49597ZM13.6791 4.03887L12.3382 4.4794L12.4319 4.76441L13.7727 4.32388L13.6791 4.03887ZM14.0801 3.97765C13.9444 3.97664 13.8093 3.99718 13.6802 4.03851L13.7716 4.32423C13.8704 4.29262 13.9738 4.27687 14.0779 4.27764L14.0801 3.97765ZM14.7037 4.14116C14.5136 4.03416 14.2982 3.97787 14.0792 3.97765L14.0789 4.27765C14.2469 4.27782 14.4116 4.321 14.5566 4.4026L14.7037 4.14116ZM15.1626 4.58838C15.0523 4.40226 14.8939 4.24817 14.7037 4.14116L14.5566 4.4026C14.7016 4.48417 14.8214 4.60115 14.9046 4.74139L15.1626 4.58838ZM16.4641 6.73609L15.1619 4.58715L14.9053 4.74262L16.2075 6.89156L16.4641 6.73609ZM16.6362 7.55878C16.6801 7.27203 16.6184 6.97968 16.4625 6.73358L16.2091 6.89407C16.3265 7.07946 16.3725 7.29876 16.3397 7.51339L16.6362 7.55878ZM16.2238 8.2976C16.4459 8.10704 16.5923 7.84548 16.6362 7.55878L16.3397 7.51339C16.3068 7.72806 16.197 7.92533 16.0284 8.06994L16.2238 8.2976ZM15.164 9.20051L16.2234 8.29796L16.0289 8.06959L14.9694 8.97215L15.164 9.20051ZM15.2167 9.5V9.08633H14.9167V9.5H15.2167ZM14.1259 13.6554L12.2333 13.0322L12.1395 13.3172L14.0321 13.9404L14.1259 13.6554ZM15.2529 11.5712L13.9507 13.7201L14.2073 13.8756L15.5095 11.7267L15.2529 11.5712ZM13.781 10.4343L15.2819 11.7613L15.4806 11.5366L13.9797 10.2096L13.781 10.4343ZM13.7329 8.66749C13.8316 9.20571 13.8316 9.75668 13.7329 10.2949L14.0279 10.349C14.1332 9.77503 14.1332 9.18737 14.0279 8.61336L13.7329 8.66749ZM15.2835 7.23728L13.7826 8.52664L13.9781 8.7542L15.479 7.46484L15.2835 7.23728ZM13.9507 5.27986L15.2529 7.4288L15.5095 7.27332L14.2073 5.12438L13.9507 5.27986ZM12.2262 5.94681L14.1244 5.34511L14.0337 5.05913L12.1356 5.66083L12.2262 5.94681ZM10.6396 5.10125C11.1658 5.29353 11.6548 5.57046 12.0864 5.92034L12.2754 5.6873C11.8178 5.31637 11.2997 5.02305 10.7426 4.81948L10.6396 5.10125ZM10.1524 3.08336L10.5442 4.99055L10.838 4.93018L10.4463 3.023L10.1524 3.08336ZM7.69493 3.20318H10.2993V2.90318H7.69493V3.20318ZM7.45016 5.01171L7.84193 3.08304L7.54793 3.02332L7.15617 4.95199L7.45016 5.01171ZM5.90328 5.94103C6.33265 5.58693 6.82355 5.30999 7.35304 5.12332L7.25329 4.84039C6.69092 5.03865 6.16912 5.33294 5.7124 5.70959L5.90328 5.94103ZM3.86832 5.34459L5.76093 5.96779L5.85475 5.68284L3.96215 5.05964L3.86832 5.34459ZM2.74132 7.4288L4.04352 5.27986L3.78695 5.12438L2.48475 7.27332L2.74132 7.4288ZM4.21323 8.56565L2.71239 7.23868L2.51368 7.46343L4.01452 8.79041L4.21323 8.56565ZM4.26141 10.3325C4.16267 9.79429 4.16267 9.24332 4.26141 8.7051L3.96634 8.65096C3.86103 9.22497 3.86103 9.81263 3.96634 10.3866L4.26141 10.3325ZM2.71078 11.7627L4.21162 10.4734L4.01613 10.2458L2.51529 11.5352L2.71078 11.7627ZM4.04352 13.7201L2.74132 11.5712L2.48475 11.7267L3.78695 13.8756L4.04352 13.7201ZM5.76803 13.0532L3.86991 13.6549L3.96056 13.9409L5.85869 13.3392L5.76803 13.0532ZM7.35465 13.8988C6.82849 13.7065 6.33942 13.4295 5.90782 13.0797L5.7189 13.3127C6.17646 13.6836 6.69461 13.9769 7.25168 14.1805L7.35465 13.8988ZM7.84186 15.9166L7.4501 14.0095L7.15623 14.0698L7.548 15.977L7.84186 15.9166ZM10.2993 15.7968H7.69493V16.0968H10.2993V15.7968ZM10.5441 13.9883L10.1523 15.917L10.4463 15.9767L10.8381 14.048L10.5441 13.9883ZM12.091 13.059C11.6616 13.4131 11.1707 13.69 10.6412 13.8767L10.741 14.1596C11.3033 13.9613 11.8251 13.6671 12.2819 13.2904L12.091 13.059ZM8.99992 12.5733C8.37391 12.5733 7.76228 12.3926 7.2424 12.0544L7.0788 12.3058C7.64779 12.676 8.31634 12.8733 8.99992 12.8733V12.5733ZM10.2167 12.3474C9.83116 12.5006 9.418 12.5775 9.0014 12.5733L8.99843 12.8733C9.45383 12.8778 9.90565 12.7938 10.3275 12.6261L10.2167 12.3474ZM11.2461 11.6813C10.9521 11.9676 10.6022 12.1941 10.2167 12.3474L10.3275 12.6261C10.7493 12.4584 11.1328 12.2104 11.4554 11.8963L11.2461 11.6813ZM11.9293 10.6805C11.7723 11.0548 11.5402 11.3951 11.2461 11.6813L11.4554 11.8963C11.778 11.5822 12.0333 11.2083 12.2059 10.7966L11.9293 10.6805ZM12.1606 9.50148C12.1648 9.90546 12.0862 10.3063 11.9293 10.6805L12.2059 10.7966C12.3786 10.3847 12.4652 9.94338 12.4606 9.49835L12.1606 9.50148ZM11.629 7.79396C11.9758 8.29929 12.1606 8.89296 12.1606 9.49992H12.4606C12.4606 8.83181 12.2571 8.17906 11.8763 7.62421L11.629 7.79396ZM10.2108 6.66099C10.7888 6.89409 11.2821 7.28858 11.629 7.79396L11.8763 7.62421C11.4956 7.06942 10.9549 6.6376 10.323 6.38276L10.2108 6.66099ZM8.38255 6.48571C8.99645 6.36682 9.63272 6.42787 10.2108 6.66099L10.323 6.38276C9.6911 6.12794 8.99604 6.06132 8.32551 6.19118L8.38255 6.48571ZM6.76355 7.3281C7.20533 6.89796 7.76868 6.6046 8.38255 6.48571L8.32551 6.19118C7.65497 6.32104 7.0385 6.64168 6.55427 7.11315L6.76355 7.3281ZM5.89981 8.90109C6.02145 8.30568 6.32181 7.75819 6.76355 7.3281L6.55427 7.11315C6.07 7.58466 5.73973 8.18589 5.60588 8.84104L5.89981 8.90109ZM6.07927 10.6747C5.84057 10.1136 5.77818 9.49647 5.89981 8.90109L5.60588 8.84104C5.47203 9.49622 5.54077 10.1753 5.80322 10.7922L6.07927 10.6747ZM7.2424 12.0544C6.72255 11.7162 6.318 11.2359 6.07927 10.6747L5.80322 10.7922C6.06564 11.409 6.50977 11.9356 7.0788 12.3058L7.2424 12.0544ZM9.00332 7.20102C8.6919 7.19395 8.38216 7.24846 8.0928 7.36133L8.20182 7.64082C8.45417 7.54239 8.72453 7.49477 8.99651 7.50094L9.00332 7.20102ZM9.90703 7.36133C9.61767 7.24846 9.30793 7.19395 8.99651 7.20102L9.00332 7.50094C9.2753 7.49477 9.54566 7.54239 9.79801 7.64082L9.90703 7.36133ZM10.6804 7.85818C10.4595 7.64316 10.1964 7.47421 9.90703 7.36133L9.79801 7.64082C10.0503 7.73925 10.2793 7.88639 10.4711 8.07313L10.6804 7.85818ZM11.1916 8.61271C11.0752 8.32986 10.9012 8.07321 10.6804 7.85818L10.4711 8.07313C10.6629 8.25986 10.8135 8.4823 10.9142 8.72687L11.1916 8.61271ZM11.357 9.50351C11.3643 9.19863 11.308 8.89557 11.1916 8.61271L10.9142 8.72687C11.0148 8.97143 11.0634 9.23318 11.0571 9.49633L11.357 9.50351ZM11.1916 10.3871C11.308 10.1043 11.3643 9.80121 11.357 9.49633L11.0571 9.50351C11.0634 9.76665 11.0148 10.0284 10.9142 10.273L11.1916 10.3871ZM10.6804 11.1417C10.9012 10.9266 11.0752 10.67 11.1916 10.3871L10.9142 10.273C10.8135 10.5175 10.6629 10.74 10.4711 10.9267L10.6804 11.1417ZM9.90703 11.6385C10.1964 11.5256 10.4595 11.3567 10.6804 11.1417L10.4711 10.9267C10.2793 11.1134 10.0503 11.2606 9.79801 11.359L9.90703 11.6385ZM8.99651 11.7988C9.30793 11.8059 9.61767 11.7514 9.90703 11.6385L9.79801 11.359C9.54566 11.4574 9.2753 11.5051 9.00332 11.4989L8.99651 11.7988ZM8.0928 11.6385C8.38216 11.7514 8.6919 11.8059 9.00332 11.7988L8.99651 11.4989C8.72453 11.5051 8.45417 11.4574 8.20182 11.359L8.0928 11.6385ZM7.31947 11.1417C7.54032 11.3567 7.80343 11.5256 8.0928 11.6385L8.20182 11.359C7.94949 11.2606 7.72055 11.1134 7.52875 10.9267L7.31947 11.1417ZM6.80824 10.3871C6.92463 10.67 7.09862 10.9266 7.31947 11.1417L7.52875 10.9267C7.33697 10.74 7.18631 10.5175 7.08567 10.273L6.80824 10.3871ZM6.64284 9.49633C6.63554 9.80121 6.69185 10.1043 6.80824 10.3871L7.08567 10.273C6.98504 10.0284 6.93646 9.76665 6.94275 9.50351L6.64284 9.49633ZM6.80824 8.61271C6.69185 8.89557 6.63554 9.19863 6.64284 9.50351L6.94275 9.49633C6.93646 9.23318 6.98504 8.97143 7.08567 8.72687L6.80824 8.61271ZM7.31947 7.85818C7.09862 8.07321 6.92463 8.32986 6.80824 8.61271L7.08567 8.72687C7.18631 8.4823 7.33697 8.25986 7.52875 8.07313L7.31947 7.85818ZM8.0928 7.36133C7.80343 7.47421 7.54032 7.64316 7.31947 7.85818L7.52875 8.07313C7.72055 7.88639 7.94949 7.73925 8.20182 7.64082L8.0928 7.36133Z" fill="black"/>
</svg>
