<svg width="18" height="19" viewBox="0 0 18 19" fill="none" xmlns="http://www.w3.org/2000/svg">
<path d="M16.3334 14.1667C16.3334 14.5203 16.1929 14.8594 15.9428 15.1095C15.6928 15.3595 15.3536 15.5 15 15.5H3.00002C2.6464 15.5 2.30726 15.3595 2.05721 15.1095C1.80716 14.8594 1.66669 14.5203 1.66669 14.1667V6.83333C1.66669 6.47971 1.80716 6.14057 2.05721 5.89052C2.30726 5.64048 2.6464 5.5 3.00002 5.5H5.66669L7.00002 3.5H11L12.3334 5.5H15C15.3536 5.5 15.6928 5.64048 15.9428 5.89052C16.1929 6.14057 16.3334 6.47971 16.3334 6.83333V14.1667Z" stroke="black" stroke-width="1.4" stroke-linecap="round" stroke-linejoin="round"/>
<path d="M8.99998 12.8333C10.4727 12.8333 11.6666 11.6394 11.6666 10.1667C11.6666 8.69391 10.4727 7.5 8.99998 7.5C7.52722 7.5 6.33331 8.69391 6.33331 10.1667C6.33331 11.6394 7.52722 12.8333 8.99998 12.8333Z" stroke="black" stroke-width="1.4" stroke-linecap="round" stroke-linejoin="round"/>
</svg>
